<?xml version="1.0" encoding="UTF-8" standalone="no"?>
<!-- Created with Inkscape (http://www.inkscape.org/) -->

<svg
   xmlns:dc="http://purl.org/dc/elements/1.1/"
   xmlns:cc="http://creativecommons.org/ns#"
   xmlns:rdf="http://www.w3.org/1999/02/22-rdf-syntax-ns#"
   xmlns:svg="http://www.w3.org/2000/svg"
   xmlns="http://www.w3.org/2000/svg"
   xmlns:sodipodi="http://sodipodi.sourceforge.net/DTD/sodipodi-0.dtd"
   xmlns:inkscape="http://www.inkscape.org/namespaces/inkscape"
   width="510.16299"
   height="65.983078"
   viewBox="0 0 134.98062 17.458023"
   version="1.1"
   id="svg8"
   inkscape:version="0.92.1 r15371"
   sodipodi:docname="fullLogo.svg"
   inkscape:export-filename="/home/scoutchorton/Desktop/Programming/Web/simpleCanvas/docs/images/fullLogo.png"
   inkscape:export-xdpi="959.9408"
   inkscape:export-ydpi="959.9408">
  <defs
     id="defs2">
    <style
       type="text/css"
       id="style2">
    @font-face {
      font-family: Avro;
      src: url('./Arvo-Regular.ttf');
    }
  </style>
  </defs>
  <sodipodi:namedview
     id="base"
     pagecolor="#ffffff"
     bordercolor="#666666"
     borderopacity="1.0"
     inkscape:pageopacity="0.0"
     inkscape:pageshadow="2"
     inkscape:zoom="1.4"
     inkscape:cx="248.31102"
     inkscape:cy="6.707333"
     inkscape:document-units="px"
     inkscape:current-layer="layer1"
     showgrid="false"
     inkscape:measure-start="0,0"
     inkscape:measure-end="0,0"
     units="px"
     fit-margin-top="0"
     fit-margin-left="0"
     fit-margin-right="0"
     fit-margin-bottom="0"
     inkscape:window-width="1280"
     inkscape:window-height="998"
     inkscape:window-x="1366"
     inkscape:window-y="0"
     inkscape:window-maximized="1" />
  <metadata
     id="metadata5">
    <rdf:RDF>
      <cc:Work
         rdf:about="">
        <dc:format>image/svg+xml</dc:format>
        <dc:type
           rdf:resource="http://purl.org/dc/dcmitype/StillImage" />
        <dc:title />
      </cc:Work>
    </rdf:RDF>
  </metadata>
  <g
     inkscape:label="Layer 1"
     inkscape:groupmode="layer"
     id="layer1"
     transform="translate(0,-279.86063)">
    <flowRoot
       xml:space="preserve"
       id="flowRoot10"
       style="font-style:normal;font-variant:normal;font-weight:normal;font-stretch:normal;font-size:2.66666675px;line-height:1.25;font-family:'Franklin Gothic Medium';-inkscape-font-specification:'Franklin Gothic Medium, ';letter-spacing:0px;word-spacing:0px;fill:#000000;fill-opacity:1;stroke:none"
       transform="scale(0.26458333)"><flowRegion
         id="flowRegion12"
         style="font-style:normal;font-variant:normal;font-weight:normal;font-stretch:normal;font-family:'Franklin Gothic Medium';-inkscape-font-specification:'Franklin Gothic Medium, '"><rect
           id="rect14"
           width="77.14286"
           height="125.71429"
           x="111.42857"
           y="576.80542"
           style="font-style:normal;font-variant:normal;font-weight:normal;font-stretch:normal;font-family:'Franklin Gothic Medium';-inkscape-font-specification:'Franklin Gothic Medium, '" /></flowRegion><flowPara
         id="flowPara16" /></flowRoot>    <g
       aria-label="simpleCanvas"
       style="font-style:normal;font-variant:normal;font-weight:normal;font-stretch:normal;font-size:17.63888931px;line-height:1.25;font-family:Rockwell;-inkscape-font-specification:Rockwell;letter-spacing:0px;word-spacing:0px;fill:#000000;fill-opacity:1;stroke:none;stroke-width:0.26458332"
       id="text20">
      <path
         d="m 5.3054472,286.7336 q 0,-0.36174 -0.1722548,-0.61151 -0.163642,-0.25838 -0.4306369,-0.41341 -0.266995,-0.16364 -0.594279,-0.23254 -0.3272841,-0.0775 -0.6373427,-0.0775 -0.3445096,0 -0.6373427,0.0775 -0.2842204,0.0775 -0.4909261,0.22393 -0.2067057,0.14642 -0.3272841,0.36173 -0.1119656,0.20671 -0.1119656,0.46509 0,0.44787 0.2669949,0.71486 0.2756077,0.25838 0.9129503,0.48231 l 1.7139351,0.6029 q 1.1024306,0.37034 1.6105822,1.00769 0.5081516,0.63734 0.5081516,1.52445 0,0.59428 -0.2411567,1.09382 -0.232544,0.49092 -0.6717937,0.84405 -0.4306369,0.34451 -1.0421414,0.53399 -0.6115044,0.19809 -1.3608127,0.19809 -1.0421414,0 -1.6967096,-0.3359 -0.6545682,-0.33589 -1.00769045,-0.88711 H 0 v -1.48139 h 1.782837 q 0,0.37035 0.1550293,0.63734 0.163642,0.25838 0.4220242,0.42203 0.2669949,0.16364 0.594279,0.24115 0.3358968,0.0775 0.6804063,0.0775 0.3358968,0 0.6459554,-0.0775 0.3100586,-0.0861 0.5426026,-0.24115 0.2411567,-0.16365 0.3789605,-0.38758 0.1378038,-0.22393 0.1378038,-0.50815 0,-0.43064 -0.2842203,-0.73208 -0.2756077,-0.30145 -0.9474013,-0.5426 l -1.7053223,-0.63735 q -1.0421414,-0.37034 -1.55029304,-0.93879 -0.49953886,-0.57705 -0.49953886,-1.43832 0,-0.56844 0.20670573,-1.05076 0.21531848,-0.48231 0.61150447,-0.82682 0.4047987,-0.35312 0.9818522,-0.55121 0.5770535,-0.1981 1.3177491,-0.1981 0.956014,0 1.6019694,0.267 0.6459554,0.26699 1.1627198,0.91295 h 0.8354357 v 1.48139 z"
         style="font-style:normal;font-variant:normal;font-weight:normal;font-stretch:normal;font-size:17.63888931px;font-family:Arvo;-inkscape-font-specification:Arvo;stroke-width:0.26458332"
         id="path4491" />
      <path
         d="m 8.629964,284.33926 h 2.911106 v 7.4414 h 1.343587 v 1.48139 H 8.6471895 v -1.48139 h 1.2746853 v -5.96001 H 8.629964 Z m 0.990465,-3.16088 q 0,-0.22393 0.086127,-0.42202 0.09474,-0.20671 0.2411566,-0.35312 0.155029,-0.15503 0.361735,-0.24116 0.206706,-0.0947 0.43925,-0.0947 0.223931,0 0.422024,0.0947 0.206706,0.0861 0.353122,0.24116 0.15503,0.14641 0.241157,0.35312 0.09474,0.19809 0.09474,0.42202 0,0.23255 -0.09474,0.43925 -0.08613,0.20671 -0.241157,0.37035 -0.146416,0.15503 -0.353122,0.24977 -0.198093,0.0861 -0.422024,0.0861 -0.232544,0 -0.43925,-0.0861 -0.206706,-0.0947 -0.361735,-0.24977 -0.1464165,-0.16364 -0.2411566,-0.37035 -0.086127,-0.2067 -0.086127,-0.43925 z"
         style="font-style:normal;font-variant:normal;font-weight:normal;font-stretch:normal;font-size:17.63888931px;font-family:Arvo;-inkscape-font-specification:Arvo;stroke-width:0.26458332"
         id="path4493" />
      <path
         d="m 14.348823,284.33926 h 2.842203 v 1.04214 h 0.01723 q 0.292833,-0.24977 0.611504,-0.46509 0.327284,-0.22393 0.680407,-0.38757 0.353122,-0.16364 0.732083,-0.25838 0.387573,-0.0947 0.800984,-0.0947 0.964627,0 1.662259,0.36174 0.697632,0.35312 1.076592,1.11104 0.327284,-0.29283 0.689019,-0.55982 0.361735,-0.27561 0.749309,-0.47371 0.396186,-0.19809 0.826823,-0.31867 0.430637,-0.12058 0.895724,-0.12058 0.723471,0 1.300524,0.1981 0.577054,0.19809 0.981852,0.60289 0.404799,0.4048 0.611505,1.04214 0.215318,0.62873 0.215318,1.49 v 4.27192 h 1.240235 v 1.48139 h -4.168566 v -1.48139 h 1.25746 v -4.07382 q 0,-1.02492 -0.516764,-1.5503 -0.516765,-0.53398 -1.490004,-0.53398 -0.577054,0 -1.179946,0.2756 -0.602891,0.27561 -1.033528,0.69763 v 5.18487 h 1.231621 v 1.48139 h -4.159952 v -1.48139 h 1.257459 v -4.07382 q 0,-1.02492 -0.525377,-1.5503 -0.516764,-0.53398 -1.490003,-0.53398 -0.559829,0 -1.128269,0.26699 -0.568441,0.26699 -1.076593,0.66318 v 5.22793 h 1.25746 v 1.48139 h -4.168565 v -1.48139 h 1.240234 v -5.96001 h -1.240234 z"
         style="font-style:normal;font-variant:normal;font-weight:normal;font-stretch:normal;font-size:17.63888931px;font-family:Arvo;-inkscape-font-specification:Arvo;stroke-width:0.26458332"
         id="path4495" />
      <path
         d="m 31.669041,284.33926 h 2.842204 v 0.74069 q 0.568441,-0.43925 1.240234,-0.69763 0.671794,-0.25838 1.386651,-0.25838 0.8785,0 1.610582,0.32728 0.732083,0.32729 1.25746,0.92157 0.53399,0.59427 0.826823,1.42971 0.292833,0.82682 0.292833,1.83451 0,1.0766 -0.327284,1.96371 -0.327284,0.88711 -0.91295,1.52445 -0.577053,0.62873 -1.378038,0.98186 -0.800985,0.35312 -1.756999,0.35312 -0.680406,0 -1.214396,-0.14642 -0.525377,-0.1378 -1.007691,-0.36173 v 2.88526 h 1.395264 v 1.48139 h -4.237467 v -1.48139 h 1.223009 v -10.01661 h -1.240235 z m 5.047065,1.19717 q -0.620117,0 -1.197171,0.24977 -0.56844,0.24977 -0.990465,0.68902 v 4.83174 q 0.284221,0.29284 0.809598,0.52538 0.53399,0.23254 1.326362,0.23254 0.551215,0 1.059367,-0.21531 0.508151,-0.21532 0.895724,-0.63735 0.387574,-0.43063 0.620118,-1.05936 0.232544,-0.62873 0.232544,-1.45556 0,-0.75792 -0.223932,-1.34358 -0.215318,-0.58567 -0.594279,-0.99047 -0.370347,-0.4048 -0.869886,-0.6115 -0.499539,-0.21532 -1.06798,-0.21532 z"
         style="font-style:normal;font-variant:normal;font-weight:normal;font-stretch:normal;font-size:17.63888931px;font-family:Arvo;-inkscape-font-specification:Arvo;stroke-width:0.26458332"
         id="path4497" />
      <path
         d="m 42.701957,279.86063 h 2.89388 v 11.92003 h 1.343587 v 1.48139 h -4.237467 v -1.48139 h 1.291911 v -10.43864 h -1.291911 z"
         style="font-style:normal;font-variant:normal;font-weight:normal;font-stretch:normal;font-size:17.63888931px;font-family:Arvo;-inkscape-font-specification:Arvo;stroke-width:0.26458332"
         id="path4499" />
      <path
         d="m 50.040012,289.00736 q 0,0.37896 0.05168,0.69763 0.06029,0.31006 0.163642,0.59428 0.318672,0.86128 1.016304,1.30053 0.706244,0.43063 1.593356,0.43063 0.697632,0 1.3522,-0.18948 0.663181,-0.19809 1.386651,-0.6115 l 0.645956,1.09382 q -0.8785,0.60289 -1.765612,0.89572 -0.887112,0.29283 -1.843126,0.29283 -0.904337,0 -1.679484,-0.30144 -0.766534,-0.30145 -1.326362,-0.89573 -0.551215,-0.59428 -0.869886,-1.48139 -0.310059,-0.88711 -0.310059,-2.06706 0,-0.95601 0.266995,-1.80006 0.266995,-0.85266 0.792372,-1.48139 0.53399,-0.63734 1.317749,-1.00769 0.783759,-0.37035 1.825901,-0.37035 1.00769,0 1.679484,0.31006 0.680406,0.30145 1.10243,0.8096 0.430637,0.49954 0.645956,1.14549 0.223931,0.64596 0.310058,1.31775 0.04306,0.32729 0.05168,0.66318 0.01722,0.3359 0.01722,0.65457 z m 2.506307,-3.55706 q -0.559828,0 -0.981852,0.16364 -0.413412,0.15503 -0.706245,0.45648 -0.292833,0.29283 -0.4737,0.72347 -0.172255,0.43063 -0.258383,0.96462 h 4.625041 q -0.03445,-0.49953 -0.163642,-0.92156 -0.120578,-0.42202 -0.37896,-0.73208 -0.258383,-0.31006 -0.663181,-0.48231 -0.404799,-0.17226 -0.999078,-0.17226 z"
         style="font-style:normal;font-variant:normal;font-weight:normal;font-stretch:normal;font-size:17.63888931px;font-family:Arvo;-inkscape-font-specification:Arvo;stroke-width:0.26458332"
         id="path4501" />
      <path
         d="m 68.290407,283.65024 q -0.577054,-0.98185 -1.533068,-1.54168 -0.947401,-0.55983 -2.118734,-0.55983 -0.999077,0 -1.8259,0.42202 -0.826823,0.42203 -1.421102,1.13689 -0.585666,0.70624 -0.91295,1.64503 -0.327284,0.93017 -0.327284,1.9637 0,1.22301 0.361735,2.17041 0.361735,0.93879 0.938788,1.56752 0.585666,0.62012 1.386651,1.04214 0.800985,0.41341 1.800062,0.41341 1.360813,0 2.368504,-0.65456 1.00769,-0.66318 1.722547,-2.17041 l 1.515843,0.71485 q -0.327285,0.93018 -1.111044,1.80007 -0.783759,0.86127 -1.937866,1.39526 -1.145494,0.52538 -2.540758,0.52538 -1.334975,0 -2.454631,-0.49954 -1.119656,-0.50815 -1.998155,-1.43833 -0.869887,-0.93018 -1.334975,-2.20486 -0.456475,-1.27469 -0.456475,-2.66134 0,-1.39526 0.456475,-2.6355 0.465088,-1.24023 1.291911,-2.15318 0.835436,-0.92156 1.98093,-1.44694 1.154107,-0.53399 2.497694,-0.53399 1.197171,0 2.067058,0.34451 0.869886,0.3359 1.472778,0.8096 0.611505,0.46508 1.050754,1.0163 h 0.912951 v 1.53307 z"
         style="font-style:normal;font-variant:normal;font-weight:normal;font-stretch:normal;font-size:17.63888931px;font-family:Arvo;-inkscape-font-specification:Arvo;stroke-width:0.26458332"
         id="path4503" />
      <path
         d="m 76.88592,292.43523 q -0.508151,0.4737 -1.128268,0.77515 -0.611505,0.30144 -1.395264,0.30144 -0.654568,0 -1.205784,-0.2067 -0.542602,-0.20671 -0.938788,-0.55983 -0.396186,-0.36173 -0.620117,-0.83544 -0.215319,-0.4737 -0.215319,-1.00769 0,-0.56844 0.163642,-1.00769 0.172255,-0.43925 0.447863,-0.75792 0.28422,-0.32728 0.654568,-0.5426 0.37896,-0.22393 0.783759,-0.35312 0.413412,-0.13781 0.835436,-0.18948 0.430637,-0.0603 0.81821,-0.0603 0.620117,0 1.042141,0.0431 0.422025,0.0345 0.766534,0.10335 l 0.0086,-0.73208 q 0,-0.4737 -0.137804,-0.81821 -0.137804,-0.35312 -0.387573,-0.57705 -0.24977,-0.23255 -0.602892,-0.34451 -0.34451,-0.11197 -0.775146,-0.11197 -0.404799,0 -0.775147,0.0603 -0.370348,0.0517 -0.697632,0.14642 -0.318671,0.0861 -0.594279,0.2067 -0.266995,0.11197 -0.456475,0.24116 l -0.525377,-1.11104 q 0.318671,-0.20671 0.697632,-0.37896 0.37896,-0.18087 0.792372,-0.30145 0.422024,-0.12919 0.852661,-0.19809 0.43925,-0.0775 0.861274,-0.0775 0.775146,0 1.395264,0.18948 0.620117,0.18087 1.050754,0.56844 0.430637,0.38758 0.663181,0.99047 0.232544,0.59428 0.232544,1.42971 l -0.0086,4.4614 h 0.990465 v 1.48139 H 76.88592 Z m -2.17041,-0.26699 q 0.318671,0 0.637343,-0.0775 0.318671,-0.0775 0.602892,-0.2067 0.28422,-0.13781 0.525377,-0.31006 0.241156,-0.18087 0.404798,-0.37035 l 0.0086,-2.01538 h -1.860352 q -0.465087,0 -0.852661,0.10335 -0.37896,0.10335 -0.663181,0.30145 -0.275607,0.19809 -0.430637,0.49092 -0.155029,0.29284 -0.155029,0.6718 0,0.35312 0.129191,0.62011 0.129191,0.25839 0.361735,0.43925 0.241157,0.17226 0.568441,0.267 0.327284,0.0861 0.72347,0.0861 z"
         style="font-style:normal;font-variant:normal;font-weight:normal;font-stretch:normal;font-size:17.63888931px;font-family:Arvo;-inkscape-font-specification:Arvo;stroke-width:0.26458332"
         id="path4505" />
      <path
         d="m 87.160921,291.78066 h 1.25746 v -4.07382 q 0,-1.02492 -0.525377,-1.5503 -0.516764,-0.53398 -1.490004,-0.53398 -0.559828,0 -1.128269,0.26699 -0.568441,0.26699 -1.076592,0.66318 v 5.22793 h 1.25746 v 1.48139 h -4.168566 v -1.48139 h 1.240234 v -5.96001 h -1.240234 v -1.48139 h 2.842204 v 1.05075 h 0.01722 q 0.284221,-0.24977 0.602892,-0.4737 0.327284,-0.22393 0.680407,-0.38757 0.353122,-0.16364 0.732082,-0.25838 0.387574,-0.0947 0.809598,-0.0947 0.714857,0 1.291911,0.1981 0.577053,0.19809 0.981852,0.60289 0.404799,0.4048 0.620117,1.04214 0.223931,0.62873 0.223931,1.49 v 4.27192 h 1.240235 v 1.48139 h -4.168566 z"
         style="font-style:normal;font-variant:normal;font-weight:normal;font-stretch:normal;font-size:17.63888931px;font-family:Arvo;-inkscape-font-specification:Arvo;stroke-width:0.26458332"
         id="path4507" />
      <path
         d="m 92.380241,284.33926 h 3.08336 v 1.48139 h -0.835436 l 2.204862,6.14949 2.153184,-6.14949 h -0.542602 v -1.48139 h 2.824981 v 1.48139 h -0.76654 l -2.919715,7.57921 h -1.584744 l -2.911106,-7.57921 h -0.706244 z"
         style="font-style:normal;font-variant:normal;font-weight:normal;font-stretch:normal;font-size:17.63888931px;font-family:Arvo;-inkscape-font-specification:Arvo;stroke-width:0.26458332"
         id="path4509" />
      <path
         d="m 107.78842,292.43523 q -0.50815,0.4737 -1.12826,0.77515 -0.61151,0.30144 -1.39527,0.30144 -0.65457,0 -1.20578,-0.2067 -0.5426,-0.20671 -0.93879,-0.55983 -0.39619,-0.36173 -0.62012,-0.83544 -0.21532,-0.4737 -0.21532,-1.00769 0,-0.56844 0.16365,-1.00769 0.17225,-0.43925 0.44786,-0.75792 0.28422,-0.32728 0.65457,-0.5426 0.37896,-0.22393 0.78376,-0.35312 0.41341,-0.13781 0.83543,-0.18948 0.43064,-0.0603 0.81821,-0.0603 0.62012,0 1.04214,0.0431 0.42203,0.0345 0.76654,0.10335 l 0.009,-0.73208 q 0,-0.4737 -0.1378,-0.81821 -0.13781,-0.35312 -0.38758,-0.57705 -0.24977,-0.23255 -0.60289,-0.34451 -0.34451,-0.11197 -0.77515,-0.11197 -0.40479,0 -0.77514,0.0603 -0.37035,0.0517 -0.69763,0.14642 -0.31868,0.0861 -0.59428,0.2067 -0.267,0.11197 -0.45648,0.24116 l -0.52538,-1.11104 q 0.31868,-0.20671 0.69764,-0.37896 0.37896,-0.18087 0.79237,-0.30145 0.42202,-0.12919 0.85266,-0.19809 0.43925,-0.0775 0.86127,-0.0775 0.77515,0 1.39527,0.18948 0.62011,0.18087 1.05075,0.56844 0.43064,0.38758 0.66318,0.99047 0.23255,0.59428 0.23255,1.42971 l -0.009,4.4614 h 0.99047 v 1.48139 h -2.59244 z m -2.17041,-0.26699 q 0.31868,0 0.63735,-0.0775 0.31867,-0.0775 0.60289,-0.2067 0.28422,-0.13781 0.52538,-0.31006 0.24115,-0.18087 0.40479,-0.37035 l 0.009,-2.01538 h -1.86035 q -0.46509,0 -0.85267,0.10335 -0.37896,0.10335 -0.66318,0.30145 -0.2756,0.19809 -0.43063,0.49092 -0.15503,0.29284 -0.15503,0.6718 0,0.35312 0.12919,0.62011 0.12919,0.25839 0.36173,0.43925 0.24116,0.17226 0.56844,0.267 0.32729,0.0861 0.72347,0.0861 z"
         style="font-style:normal;font-variant:normal;font-weight:normal;font-stretch:normal;font-size:17.63888931px;font-family:Arvo;-inkscape-font-specification:Arvo;stroke-width:0.26458332"
         id="path4511" />
      <path
         d="m 117.33995,286.7336 q 0,-0.36174 -0.17225,-0.61151 -0.16364,-0.25838 -0.43064,-0.41341 -0.26699,-0.16364 -0.59428,-0.23254 -0.32728,-0.0775 -0.63734,-0.0775 -0.34451,0 -0.63734,0.0775 -0.28422,0.0775 -0.49093,0.22393 -0.2067,0.14642 -0.32728,0.36173 -0.11197,0.20671 -0.11197,0.46509 0,0.44787 0.267,0.71486 0.27561,0.25838 0.91295,0.48231 l 1.71393,0.6029 q 1.10243,0.37034 1.61059,1.00769 0.50815,0.63734 0.50815,1.52445 0,0.59428 -0.24116,1.09382 -0.23254,0.49092 -0.67179,0.84405 -0.43064,0.34451 -1.04214,0.53399 -0.61151,0.19809 -1.36082,0.19809 -1.04214,0 -1.69671,-0.3359 -0.65457,-0.33589 -1.00769,-0.88711 h -0.89572 v -1.48139 h 1.78283 q 0,0.37035 0.15503,0.63734 0.16365,0.25838 0.42203,0.42203 0.26699,0.16364 0.59428,0.24115 0.33589,0.0775 0.6804,0.0775 0.3359,0 0.64596,-0.0775 0.31006,-0.0861 0.5426,-0.24115 0.24116,-0.16365 0.37896,-0.38758 0.13781,-0.22393 0.13781,-0.50815 0,-0.43064 -0.28422,-0.73208 -0.27561,-0.30145 -0.94741,-0.5426 l -1.70532,-0.63735 q -1.04214,-0.37034 -1.55029,-0.93879 -0.49954,-0.57705 -0.49954,-1.43832 0,-0.56844 0.20671,-1.05076 0.21531,-0.48231 0.6115,-0.82682 0.4048,-0.35312 0.98185,-0.55121 0.57706,-0.1981 1.31775,-0.1981 0.95602,0 1.60197,0.267 0.64596,0.26699 1.16272,0.91295 h 0.83544 v 1.48139 z"
         style="font-style:normal;font-variant:normal;font-weight:normal;font-stretch:normal;font-size:17.63888931px;font-family:Arvo;-inkscape-font-specification:Arvo;stroke-width:0.26458332"
         id="path4513" />
    </g>
    <path
       style="opacity:1;fill:#000000;fill-opacity:1;stroke-width:0.06459515"
       d="m 121.75146,287.70567 c 0,0 2.88623,-1.52317 4.40972,-1.3317 1.70379,0.21413 2.70593,2.44916 4.40971,2.6633 1.52348,0.19149 4.40973,-1.3316 4.40973,-1.3316 v 2.68093 c 0,0 -2.88625,1.52309 -4.40973,1.3316 -1.70378,-0.21414 -2.70592,-2.44916 -4.40971,-2.66329 -1.52349,-0.19147 -4.40972,1.33169 -4.40972,1.33169 z"
       id="rect22"
       inkscape:connector-curvature="0"
       sodipodi:nodetypes="caaccaacc" />
  </g>
</svg>
